HIERARCHY
ROOT Hips
{
    OFFSET 0.000000 0.000000 0.000000
    CHANNELS 6 Xposition Yposition Zposition Zrotation Xrotation Yrotation
    JOINT Spine
    {
        OFFSET -0.000000 7.236184 0.000000
        CHANNELS 3 Zrotation Xrotation Yrotation
        JOINT Spine1
        {
            OFFSET -0.000000 20.420147 0.000000
            CHANNELS 3 Zrotation Xrotation Yrotation
            JOINT Neck
            {
                OFFSET -0.000000 20.336288 1.848754
                CHANNELS 3 Zrotation Xrotation Yrotation
                JOINT Head
                {
                    OFFSET -0.000000 12.354461 -1.764923
                    CHANNELS 3 Zrotation Xrotation Yrotation
                    End Site
                    {
                        OFFSET -0.000000 22.061537 0.000000
                    }
                }
            }
            JOINT LeftShoulder
            {
                OFFSET 3.573296 18.396038 -0.314103
                CHANNELS 3 Zrotation Xrotation Yrotation
                JOINT LeftArm
                {
                    OFFSET 10.880760 0.000000 0.000000
                    CHANNELS 3 Zrotation Xrotation Yrotation
                    JOINT LeftForeArm
                    {
                        OFFSET 27.185530 0.000000 0.000000
                        CHANNELS 3 Zrotation Xrotation Yrotation
                        JOINT LeftHand
                        {
                            OFFSET 27.825975 0.000000 0.000000
                            CHANNELS 3 Zrotation Xrotation Yrotation
                            End Site
                            {
                                OFFSET 13.236923 0.000000 0.000000
                            }
                        }
                    }
                }
            }
            JOINT RightShoulder
            {
                OFFSET -3.474926 18.396038 -0.314103
                CHANNELS 3 Zrotation Xrotation Yrotation
                JOINT RightArm
                {
                    OFFSET -10.880760 0.000000 0.000000
                    CHANNELS 3 Zrotation Xrotation Yrotation
                    JOINT RightForeArm
                    {
                        OFFSET -27.185530 0.000000 0.000000
                        CHANNELS 3 Zrotation Xrotation Yrotation
                        JOINT RightHand
                        {
                            OFFSET -27.825975 0.000000 0.000000
                            CHANNELS 3 Zrotation Xrotation Yrotation
                            End Site
                            {
                                OFFSET -13.236923 0.000000 0.000000
                            }
                        }
                    }
                }
            }
        }
    }
    JOINT LeftUpLeg
    {
        OFFSET 8.824615 0.000000 0.000000
        CHANNELS 3 Zrotation Xrotation Yrotation
        JOINT LeftLeg
        {
            OFFSET -0.000000 -35.111282 0.000000
            CHANNELS 3 Zrotation Xrotation Yrotation
            JOINT LeftFoot
            {
                OFFSET -0.000000 -42.324711 0.000000
                CHANNELS 3 Zrotation Xrotation Yrotation
                JOINT LeftToeBase
                {
                    OFFSET -0.000000 -5.735999 13.236923
                    CHANNELS 3 Zrotation Xrotation Yrotation
                    End Site
                    {
                        OFFSET -0.000000 0.000000 3.529846
                    }
                }
            }
        }
    }
    JOINT RightUpLeg
    {
        OFFSET -8.824615 0.000000 0.000000
        CHANNELS 3 Zrotation Xrotation Yrotation
        JOINT RightLeg
        {
            OFFSET -0.000000 -35.111282 0.000000
            CHANNELS 3 Zrotation Xrotation Yrotation
            JOINT RightFoot
            {
                OFFSET -0.000000 -42.324711 0.000000
                CHANNELS 3 Zrotation Xrotation Yrotation
                JOINT RightToeBase
                {
                    OFFSET -0.000000 -5.735999 13.236923
                    CHANNELS 3 Zrotation Xrotation Yrotation
                    End Site
                    {
                        OFFSET -0.000000 0.000000 3.529846
                    }
                }
            }
        }
    }
}
MOTION
Frames:    5
Frame Time:    0.008333
-6.386643    82.355652    99.956390    0.014384    -10.271222    -175.167343    -2.776893    -15.688435    0.469980    0.063641    6.366666    0.849143    2.195595    7.524392    -3.753782    7.205057    -0.706643    -3.012945    -0.552958    18.333731    -0.049831    -54.956638    35.235641    -28.384249    -2.000937    -6.589154    -11.977823    18.742565    -6.329678    2.853850    7.026302    18.333908    -5.334432    42.058491    44.433575    38.419319    -0.943332    -6.331247    17.273899    -13.990231    -5.690892    -4.078319    1.674202    -18.600183    -4.454307    -5.127032    10.587873    38.025063    2.172855    -1.785809    -41.673901    -0.738112    0.027960    0.818128    -10.362338    -4.358716    -6.952284    2.707146    0.175575    -3.490190    6.581742    -2.441081    -11.447644    -0.004831    0.685062    0.005219    
-6.446971    82.324829    99.957977    0.167405    -10.305136    -175.057281    -2.741729    -15.656994    0.490043    0.156101    6.347767    0.858453    2.177795    7.482205    -3.841538    7.276214    -0.793115    -3.087767    -0.555039    18.339079    -0.039823    -55.214050    34.883297    -28.061472    -2.027636    -6.583206    -11.762413    18.701176    -6.327381    2.831602    7.013453    18.321905    -5.353605    42.082691    44.421257    38.272938    -1.015434    -6.386122    17.382235    -13.986160    -5.732581    -4.090805    1.701356    -18.941309    -4.543666    -4.396042    12.731475    34.835915    0.700610    -2.787187    -38.575317    -0.753421    -0.027960    0.835180    -10.274431    -4.364920    -6.986296    2.720710    0.159067    -3.539827    6.636561    -2.447732    -11.459697    -0.012263    0.695436    0.013250    
-6.507180    82.294022    99.959442    0.320245    -10.338267    -174.947479    -2.706610    -15.626055    0.509946    0.248557    6.328833    0.867633    2.160325    7.441204    -3.929029    7.346756    -0.879363    -3.162320    -0.557235    18.344297    -0.030097    -55.462620    34.530983    -27.745701    -2.051181    -6.576980    -11.547893    18.660686    -6.324030    2.811315    7.000814    18.310228    -5.373100    42.107716    44.408070    38.126064    -1.086961    -6.441195    17.489071    -13.981965    -5.774530    -4.102458    1.727572    -19.279978    -4.632195    -3.718579    14.666893    32.101147    -0.525301    -3.802519    -35.969196    -0.768227    -0.083359    0.851678    -10.186878    -4.371469    -7.020939    2.734504    0.143977    -3.589005    6.691418    -2.454587    -11.471112    -0.019696    0.705416    0.021281    
-6.568110    82.262680    99.960709    0.475148    -10.370541    -174.836517    -2.671058    -15.595400    0.529646    0.342366    6.309751    0.876695    2.143394    7.400868    -4.017423    7.417511    -0.965144    -3.237718    -0.559075    18.349176    -0.020802    -55.703770    34.177200    -27.434902    -2.072077    -6.570029    -11.332726    18.621456    -6.319286    2.792724    6.988838    18.298698    -5.393661    42.133465    44.393993    37.976471    -1.158999    -6.497890    17.595249    -13.977344    -5.818051    -4.113044    1.753773    -19.619503    -4.720026    -3.097693    16.427816    29.661104    -1.538770    -4.804319    -33.684101    -0.782228    -0.138276    0.867286    -10.098556    -4.378509    -7.057088    2.748985    0.131274    -3.637692    6.747190    -2.462038    -11.482162    -0.027147    0.714938    0.029333    
-6.628919    82.231178    99.961685    0.629907    -10.401068    -174.726227    -2.635653    -15.565835    0.548801    0.436280    6.290880    0.885154    2.127623    7.362801    -4.105327    7.487425    -1.049206    -3.312793    -0.560422    18.353708    -0.012203    -55.932163    33.829372    -27.135614    -2.090531    -6.561768    -11.121112    18.584518    -6.312628    2.775812    6.978398    18.287354    -5.415228    42.161572    44.376568    37.824554    -1.229399    -6.554368    17.697790    -13.972465    -5.861803    -4.121379    1.779994    -19.953857    -4.804748    -2.547145    18.002268    27.465832    -2.345541    -5.755626    -31.655771    -0.794942    -0.191589    0.881467    -10.010895    -4.386377    -7.094598    2.764068    0.122729    -3.684791    6.803296    -2.470250    -11.492429    -0.034564    0.723331    0.037346    
